<svg xmlns="http://www.w3.org/2000/svg" xmlns:xlink="http://www.w3.org/1999/xlink" width="692.632" height="162.037" viewBox="0 0 692.632 162.037"><defs><style>.a,.b,.c,.d,.e,.f,.g,.h{fill-rule:evenodd;}.a{fill:url(#a);}.b{fill:url(#b);}.c{fill:url(#c);}.d{fill:url(#d);}.e{opacity:0.2;}.f{opacity:0.12;}.g{fill:#fff;opacity:0.25;}.h{fill:#808285;}</style><linearGradient id="a" x1="3.021" y1="0.798" x2="2.909" y2="0.769" gradientUnits="objectBoundingBox"><stop offset="0" stop-color="#00a0ff"/><stop offset="0.007" stop-color="#00a1ff"/><stop offset="0.26" stop-color="#00beff"/><stop offset="0.512" stop-color="#00d2ff"/><stop offset="0.76" stop-color="#00dfff"/><stop offset="1" stop-color="#00e3ff"/></linearGradient><linearGradient id="b" x1="2.632" y1="1.244" x2="2.371" y2="1.244" gradientUnits="objectBoundingBox"><stop offset="0" stop-color="#ffe000"/><stop offset="0.409" stop-color="#ffbd00"/><stop offset="0.775" stop-color="orange"/><stop offset="1" stop-color="#ff9c00"/></linearGradient><linearGradient id="c" x1="2.36" y1="0.504" x2="2.27" y2="0.351" gradientUnits="objectBoundingBox"><stop offset="0" stop-color="#ff3a44"/><stop offset="1" stop-color="#c31162"/></linearGradient><linearGradient id="d" x1="2.29" y1="1.652" x2="2.331" y2="1.583" gradientUnits="objectBoundingBox"><stop offset="0" stop-color="#32a071"/><stop offset="0.068" stop-color="#2da771"/><stop offset="0.476" stop-color="#15cf74"/><stop offset="0.801" stop-color="#06e775"/><stop offset="1" stop-color="#00f076"/></linearGradient></defs><g transform="translate(0 -0.008)"><g transform="translate(0 0.008)"><path class="a" d="M2.868,24.717C1.047,26.675,0,29.688,0,33.6V172.872c0,3.915,1.047,6.929,2.937,8.818l.494.417,78.035-78.035v-1.753L3.362,24.3Z" transform="translate(0 -22.232)"/><path class="b" d="M982.329,689,956.3,662.959v-1.822L982.337,635.1l.562.349,30.8,17.5c8.818,4.971,8.818,13.159,0,18.2l-30.8,17.5C982.891,688.647,982.329,689,982.329,689Z" transform="translate(-874.903 -581.043)"/><path class="c" d="M138.82,978.3l-26.591-26.6L33.7,1030.229c2.868,3.081,7.695,3.43,13.091.417L138.82,978.3" transform="translate(-30.832 -870.695)"/><path class="d" d="M138.82,54.668,46.791,2.389C41.4-.692,36.568-.275,33.7,2.806l78.52,78.452Z" transform="translate(-30.832 -0.253)"/><path class="e" d="M138.99,1257.6l-91.4,51.93c-5.107,2.937-9.661,2.732-12.6.068l-.494.494.494.417c2.937,2.656,7.49,2.868,12.6-.068l92.029-52.279Z" transform="translate(-31.563 -1150.557)"/><path class="f" d="M1292.725,959.888,1261.3,977.737l.562.562,30.8-17.5c4.409-2.519,6.579-5.805,6.579-9.1C1298.956,954.713,1296.717,957.582,1292.725,959.888Z" transform="translate(-1153.942 -870.695)"/><path class="g" d="M15.959,3.055,138.783,72.834c3.992,2.239,6.231,5.175,6.58,8.188,0-3.286-2.17-6.58-6.58-9.1L15.959,2.144C7.141-2.895,0,1.3,0,11.379v.911C0,2.212,7.141-1.916,15.959,3.055Z" transform="translate(0 -0.008)"/></g><g transform="translate(175.324 36.123)"><path class="h" d="M2059.817,464.773c0-22.309,18.751-40.473,41.061-40.473a38.614,38.614,0,0,1,27.731,11.15l-7.8,7.8a28.171,28.171,0,0,0-19.943-7.89,29.419,29.419,0,0,0-.008,58.833c10.563,0,16.572-4.239,20.428-8.1,3.158-3.158,5.226-7.695,6.026-13.917h-26.437V461.139h37.213a36.289,36.289,0,0,1,.6,6.9c0,8.282-2.273,18.556-9.584,25.867-7.116,7.405-16.189,11.355-28.233,11.355-22.318,0-41.069-18.147-41.069-40.473Zm108.95-11.644c-14.41,0-26.173,10.963-26.173,26.054,0,15.015,11.755,26.054,26.173,26.054a25.743,25.743,0,0,0,26.156-26.063c0-15.091-11.746-26.054-26.156-26.046Zm0,41.861c-7.89,0-14.708-6.511-14.708-15.8,0-9.38,6.809-15.8,14.708-15.8s14.7,6.409,14.7,15.8C2183.466,488.47,2176.666,494.99,2168.766,494.99Zm57.071-41.861c-14.41,0-26.156,10.963-26.156,26.054a26.157,26.157,0,0,0,52.313-.009c0-15.091-11.738-26.054-26.156-26.046Zm0,41.861c-7.89,0-14.708-6.511-14.708-15.8,0-9.38,6.809-15.8,14.708-15.8s14.708,6.409,14.708,15.8C2240.546,488.47,2233.728,494.99,2225.837,494.99Zm70.043-40.277v4.239h-.392c-2.562-3.073-7.5-5.831-13.712-5.831-13.031,0-24.99,11.457-24.99,26.173,0,14.6,11.95,25.961,24.99,25.961,6.214,0,11.15-2.758,13.712-5.916h.392v3.745c0,9.967-5.328,15.3-13.917,15.3-7.014,0-11.355-5.039-13.134-9.269l-9.976,4.145a24.849,24.849,0,0,0,23.1,15.4c13.415,0,24.769-7.907,24.769-27.152V454.7l-10.844.009Zm-13.125,40.277c-7.89,0-14.521-6.622-14.521-15.7,0-9.176,6.622-15.891,14.521-15.891,7.8,0,13.917,6.707,13.917,15.891C2296.68,488.368,2290.561,494.99,2282.755,494.99Zm31.876-67.923h11.457v76.605h-11.457Zm42.856,67.923c-5.822,0-9.976-2.673-12.623-7.89l34.847-14.427-1.2-2.962c-2.162-5.814-8.784-16.581-22.309-16.581-13.423,0-24.582,10.563-24.582,26.063,0,14.6,11.057,26.054,25.867,26.054a25.893,25.893,0,0,0,21.722-11.55l-8.886-5.916c-2.971,4.349-7.022,7.218-12.836,7.209Zm-.894-31.791c4.537,0,8.384,2.273,9.669,5.524l-23.305,9.678a14.3,14.3,0,0,1,13.636-15.2Z" transform="translate(-2059.8 -424.3)"/><path class="h" d="M6114.491,456.8H6087.1v76.605h11.431V504.389H6114.5c12.674,0,25.135-9.176,25.135-23.8,0-14.6-12.453-23.782-25.118-23.782Zm.3,36.924h-16.257V467.457h16.257a13.137,13.137,0,1,1,0,26.267Zm42.576,39.682V456.8h-11.431v76.605Zm51.351-.136V503.9c0-13.6-10.163-21.186-23.28-21.186-8.265,0-16.836,3.652-20.385,11.729l10.146,4.23c2.17-4.23,6.205-5.618,10.452-5.618,5.907,0,11.917,3.549,12.01,9.865v.792a25.237,25.237,0,0,0-11.925-2.962c-10.937,0-22.071,6.009-22.071,17.245,0,10.257,8.972,16.853,19.023,16.853,7.695,0,11.925-3.447,14.581-7.482h.392v5.916h11.048l.008-.017Zm-24.641-8.563c-3.745,0-8.972-1.873-8.972-6.494,0-5.916,6.512-8.2,12.129-8.2a20.377,20.377,0,0,1,10.453,2.562,13.89,13.89,0,0,1-13.61,12.129Zm64.842-40.311-13.108,33.2h-.392l-13.6-33.2H6209.5l20.394,46.423-11.636,25.816h11.925l31.434-72.239Z" transform="translate(-5744.308 -454.034)"/></g></g></svg>