<svg xmlns="http://www.w3.org/2000/svg" width="80.787" height="86.558" viewBox="0 0 80.787 86.558"><defs><style>.a{fill:#e94c55;}</style></defs><path class="a" d="M91.293,102.558a11.466,11.466,0,0,0,8.161-3.38l5.275-5.275h2.288a1.443,1.443,0,0,0,1.443-1.443V83.8h4.328V80.918h-4.328V78.033h4.328V75.148h-4.328V72.262h4.328V69.377h-4.328V66.492h4.328V63.607h-4.328V57.836a1.443,1.443,0,0,0-1.443-1.443h-4.328V52.066H99.8v4.328H96.918V52.066H94.033v4.328H91.148V52.066H88.262v4.328H83.935a1.443,1.443,0,0,0-1.443,1.443v.734l-9.686-5.65a14.344,14.344,0,0,0,2.472-8.068v-20.2a5.777,5.777,0,0,0-5.771-5.771h-.776A5.773,5.773,0,0,0,63.738,16H57.967A11.554,11.554,0,0,0,46.426,27.541V44.853A14.344,14.344,0,0,0,48.9,52.92l-13.32,7.77A7.237,7.237,0,0,0,32,66.921v34.194a1.443,1.443,0,0,0,1.443,1.443ZM73.836,99.672V91.758l8.356-5.981a.857.857,0,0,1,.888-.067l.032.016a.932.932,0,0,1,.5,1.015c-.432,2.135-1.092,5.435-1.092,5.435A1.443,1.443,0,0,0,83.935,93.9h2.81a5.793,5.793,0,0,0,3.6-1.264l3.709-2.967a1.28,1.28,0,0,1,1.7,1.9L90.2,97.137a8.6,8.6,0,0,1-6.121,2.535ZM91.148,85.246V69.194a5.792,5.792,0,0,0,4.145-4.145H99.8v20.2Zm6.266,11.891a8.593,8.593,0,0,1-5.691,2.525c.176-.156.35-.316.518-.485L97.516,93.9h3.132ZM85.377,59.279h20.2V91.017H99a4.154,4.154,0,0,0-.68-2.657c-.052-.078-.108-.154-.165-.228h3.088a1.443,1.443,0,0,0,1.443-1.443V63.607a1.443,1.443,0,0,0-1.443-1.443H94.033a1.443,1.443,0,0,0-1.443,1.443,2.889,2.889,0,0,1-2.885,2.885,1.443,1.443,0,0,0-1.443,1.443V86.689A1.443,1.443,0,0,0,89.7,88.131h1.658l-2.816,2.253a2.9,2.9,0,0,1-1.8.632H85.695c.224-1.119.517-2.574.745-3.7A3.817,3.817,0,0,0,85.33,83.8h.047Zm-2.885,4.328H78.164v2.885h4.328v2.885H78.164v2.885h4.328v2.885H78.164v2.885h4.328v2.885H78.164V83.8h1.829L72.047,89.49l-2.539-.448V73.705a1.443,1.443,0,0,0-1.443-1.443h-4.46L74.144,57.041l8.348,4.87ZM68.066,27.541a2.026,2.026,0,0,1,1.443.6l2.885,2.885V44.853a11.541,11.541,0,0,1-23.082,0V31.024L52.2,28.139a2.04,2.04,0,0,1,2.885,0l2.288,2.288a4.926,4.926,0,0,0,6.966,0l2.287-2.288a2.026,2.026,0,0,1,1.443-.6ZM60.852,59.279a14.376,14.376,0,0,0,10.075-4.114l.717.418L60.852,71.17,50.061,55.583l.717-.418A14.375,14.375,0,0,0,60.852,59.279Zm0,20.2A1.443,1.443,0,0,0,62.3,78.033V75.148h4.328V88.533L55.082,86.5V75.148H59.41v2.885a1.443,1.443,0,0,0,1.443,1.443Zm11.541-54.82v2.288l-.845-.845a4.9,4.9,0,0,0-2.04-1.229v-3.1A2.889,2.889,0,0,1,72.394,24.656ZM57.967,18.885h5.771a2.889,2.889,0,0,1,2.885,2.885v3.1a4.9,4.9,0,0,0-2.04,1.229L62.3,28.386a2.04,2.04,0,0,1-2.885,0L57.122,26.1a4.926,4.926,0,0,0-6.966,0l-.82.82a8.665,8.665,0,0,1,8.631-8.033ZM34.885,66.921a4.342,4.342,0,0,1,2.147-3.738l10.529-6.142L58.1,72.262h-4.46A1.443,1.443,0,0,0,52.2,73.7V85.926a4.32,4.32,0,0,1-2.885-4.079V78.033H46.426v3.814a7.2,7.2,0,0,0,5.959,7.1l18.565,3.276v7.445H52.2A17.331,17.331,0,0,1,34.885,82.361Zm0,25.832A20.351,20.351,0,0,0,41.8,99.672H34.885Z" transform="translate(-32 -16)"/><rect class="a" width="2.61" height="8.699" transform="translate(62.14 56.327)"/><rect class="a" width="5.219" height="2.61" transform="translate(20.387 18.922)"/><path class="a" d="M178.885,170.885a1.444,1.444,0,0,1-1.443,1.443H176v2.885h1.443a4.333,4.333,0,0,0,4.328-4.328V168h-2.885Z" transform="translate(-150.033 -140.59)"/><ellipse class="a" cx="1.74" cy="1.305" rx="1.74" ry="1.305" transform="translate(21.256 23.272)"/><rect class="a" width="6.089" height="2.61" transform="translate(31.695 18.922)"/><circle class="a" cx="1.305" cy="1.305" r="1.305" transform="translate(33.435 23.272)"/></svg>