<svg xmlns="http://www.w3.org/2000/svg" width="84.193" height="84.193" viewBox="0 0 84.193 84.193"><defs><style>.a{fill:#e94c55;}</style></defs><path class="a" d="M68.661,2H43.4A1.4,1.4,0,0,0,42,3.4V20.242a1.4,1.4,0,0,0,1.4,1.4H46.21v4.21a1.4,1.4,0,0,0,2.182,1.167l8.061-5.377H68.661a1.4,1.4,0,0,0,1.4-1.4V3.4A1.4,1.4,0,0,0,68.661,2Zm-1.4,16.839H56.032a1.412,1.412,0,0,0-.779.236l-6.237,4.158v-2.99a1.4,1.4,0,0,0-1.4-1.4H44.806V4.806H67.258Z" transform="translate(14.129 -2)"/><path class="a" d="M56,6h2.806V8.806H56Z" transform="translate(19.774 -0.387)"/><path class="a" d="M50,6h5.613V8.806H50Z" transform="translate(17.354 -0.387)"/><path class="a" d="M46,6h2.806V8.806H46Z" transform="translate(15.742 -0.387)"/><path class="a" d="M46,10h8.419v2.806H46Z" transform="translate(15.742 1.226)"/><path class="a" d="M51.2,42.064h.072a4.21,4.21,0,0,0,4.21-4.21v-1.4a4.21,4.21,0,0,0-2.562-3.873l2.151-2.151a1.4,1.4,0,0,0,.411-.992V26.629A12.644,12.644,0,0,0,42.855,14H31.629A12.644,12.644,0,0,0,19,26.629v2.806a1.4,1.4,0,0,0,.411.992l2.151,2.151A4.21,4.21,0,0,0,19,36.451v1.4a4.21,4.21,0,0,0,4.21,4.21h.072a14.032,14.032,0,0,0,27.924,0Zm1.475-4.21a1.4,1.4,0,0,1-1.4,1.4v-4.21a1.4,1.4,0,0,1,1.4,1.4ZM21.806,26.629a9.834,9.834,0,0,1,9.823-9.823H42.855a9.834,9.834,0,0,1,9.823,9.823v2.226l-1.4,1.4v-.822a1.4,1.4,0,0,0-1.034-1.354L34.8,23.872a1.416,1.416,0,0,0-.922.065l-9.823,4.21a1.4,1.4,0,0,0-.85,1.29v.822l-1.4-1.4Zm0,11.226v-1.4a1.4,1.4,0,0,1,1.4-1.4v4.21A1.4,1.4,0,0,1,21.806,37.855ZM37.242,51.887A11.238,11.238,0,0,1,26.016,40.661V30.36l8.522-3.648,13.93,3.8V40.661A11.238,11.238,0,0,1,37.242,51.887Z" transform="translate(4.855 2.839)"/><path class="a" d="M52.516,45.823H35.677a25.581,25.581,0,0,0-5.613.622V43.016a1.4,1.4,0,0,0-1.4-1.4H25.855V37.4a1.4,1.4,0,0,0-2.182-1.167l-8.061,5.377H3.4a1.4,1.4,0,0,0-1.4,1.4V59.855a1.4,1.4,0,0,0,1.4,1.4h9.013a25.273,25.273,0,0,0-2,9.823,1.4,1.4,0,0,0,1.4,1.4H76.371a1.4,1.4,0,0,0,1.4-1.4A25.258,25.258,0,0,0,52.516,45.823Zm-1.684,2.806L48.5,61.258H39.7L37.361,48.629ZM4.806,44.419H16.032a1.412,1.412,0,0,0,.779-.236l6.237-4.158v2.99a1.4,1.4,0,0,0,1.4,1.4h2.806V58.452H4.806Zm8.461,25.258a21.934,21.934,0,0,1,2.245-8.419H28.661a1.4,1.4,0,0,0,1.4-1.4V49.345a22.636,22.636,0,0,1,4.454-.674l2.634,14.245a1.4,1.4,0,0,0,1.381,1.148H49.66a1.4,1.4,0,0,0,1.381-1.148l2.632-14.231a22.405,22.405,0,0,1,21.25,20.992Z" transform="translate(-2 11.709)"/><path class="a" d="M54,10h5.613v2.806H54Z" transform="translate(18.967 1.226)"/><path class="a" d="M3.4,16.032H18.418l8.066,5.377a1.4,1.4,0,0,0,2.178-1.167v-4.21h2.806a1.4,1.4,0,0,0,1.4-1.4V3.4a1.4,1.4,0,0,0-1.4-1.4H3.4A1.4,1.4,0,0,0,2,3.4V14.629A1.4,1.4,0,0,0,3.4,16.032Zm1.4-11.226H30.064v8.419H27.258a1.4,1.4,0,0,0-1.4,1.4v2.99l-6.237-4.158a1.412,1.412,0,0,0-.779-.236H4.806Z" transform="translate(-2 -2)"/><path class="a" d="M6,6h5.613V8.806H6Z" transform="translate(-0.387 -0.387)"/><path class="a" d="M12,6h5.613V8.806H12Z" transform="translate(2.032 -0.387)"/><path class="a" d="M18,6h2.806V8.806H18Z" transform="translate(4.451 -0.387)"/><path class="a" d="M6,48H8.806v2.806H6Z" transform="translate(-0.387 16.548)"/><path class="a" d="M10,48h5.613v2.806H10Z" transform="translate(1.226 16.548)"/><path class="a" d="M16,48h2.806v2.806H16Z" transform="translate(3.645 16.548)"/><path class="a" d="M12,44h8.419v2.806H12Z" transform="translate(2.032 14.935)"/><path class="a" d="M6,44h5.613v2.806H6Z" transform="translate(-0.387 14.935)"/></svg>