<svg xmlns="http://www.w3.org/2000/svg" width="45.597" height="45.597" viewBox="0 0 45.597 45.597"><defs><style>.a{fill:none;}.b,.c{stroke:none;}.c{fill:#e94c55;}</style></defs><g class="a"><path class="b" d="M22.8,0A22.8,22.8,0,1,1,0,22.8,22.8,22.8,0,0,1,22.8,0Z"/><path class="c" d="M 22.79861450195313 8 C 14.63862800598145 8 8 14.63862800598145 8 22.79861450195313 C 8 30.95859909057617 14.63862800598145 37.59722900390625 22.79861450195313 37.59722900390625 C 30.95859909057617 37.59722900390625 37.59722900390625 30.95859909057617 37.59722900390625 22.79861450195313 C 37.59722900390625 14.63862800598145 30.95859909057617 8 22.79861450195313 8 M 22.79861450195313 0 C 35.38994216918945 0 45.59722900390625 10.2072868347168 45.59722900390625 22.79861450195313 C 45.59722900390625 35.38994216918945 35.38994216918945 45.59722900390625 22.79861450195313 45.59722900390625 C 10.2072868347168 45.59722900390625 0 35.38994216918945 0 22.79861450195313 C 0 10.2072868347168 10.2072868347168 0 22.79861450195313 0 Z"/></g></svg>