<svg xmlns="http://www.w3.org/2000/svg" width="86.088" height="82.037" viewBox="0 0 86.088 82.037"><defs><style>.a{fill:#e94c55;}</style></defs><path class="a" d="M141.958,69.47h-5.6V63.944a1.866,1.866,0,0,0-1.866-1.866H65.447a1.866,1.866,0,0,0-1.866,1.866V95.3l-5.3,5.3a1.866,1.866,0,0,0,0,2.639l5.309,5.309c0,.037-.011.073-.011.111v26.2a1.866,1.866,0,0,0,1.866,1.866h5.6v5.526a1.866,1.866,0,0,0,1.866,1.866H123.3a1.868,1.868,0,0,0,1.32-.547l18.661-18.661a1.866,1.866,0,0,0,.546-1.319V71.336A1.866,1.866,0,0,0,141.958,69.47ZM67.313,65.81h65.315V69.47H72.911a1.866,1.866,0,0,0-1.866,1.866v16.5L67.313,91.57ZM66.766,97.4l0,0,7.463-7.463h0l7.8-7.8L87.314,87.4,67.52,107.2l-5.278-5.278Zm.547,35.6V111.683a1.8,1.8,0,0,0,.207.021,1.868,1.868,0,0,0,1.32-.547l2.206-2.206v24.04Zm7.465-27.773L91.272,88.724a1.866,1.866,0,0,0,0-2.639l-7.918-7.918a1.866,1.866,0,0,0-2.639,0l-5.938,5.938V73.2h65.315v48.52H123.3a1.866,1.866,0,0,0-1.866,1.866v16.8H74.777V105.218Zm62.676,20.235-12.29,12.29v-12.29Z" transform="translate(-57.737 -62.078)"/><path class="a" d="M148.129,113.654h22.394a1.866,1.866,0,1,0,0-3.732H148.129a1.866,1.866,0,1,0,0,3.732Z" transform="translate(-104.962 -87.601)"/><path class="a" d="M128.129,137.654h39.189a1.866,1.866,0,1,0,0-3.732H128.129a1.866,1.866,0,1,0,0,3.732Z" transform="translate(-94.293 -100.404)"/><path class="a" d="M158.783,161.654a1.866,1.866,0,0,0,0-3.732H112.129a1.866,1.866,0,1,0,0,3.732Z" transform="translate(-85.758 -113.208)"/></svg>