<svg xmlns="http://www.w3.org/2000/svg" xmlns:xlink="http://www.w3.org/1999/xlink" width="1395" height="1394.999" viewBox="0 0 1395 1394.999"><defs><style>.a{fill:url(#a);}</style><linearGradient id="a" x1="0.5" x2="0.5" y2="1" gradientUnits="objectBoundingBox"><stop offset="0" stop-color="#ff1d3b"/><stop offset="1" stop-color="#621ea7"/></linearGradient></defs><path class="a" d="M-9824.5,2105a708.666,708.666,0,0,1-71.315-3.6,699.11,699.11,0,0,1-69.255-10.57c-22.474-4.6-44.963-10.381-66.845-17.187-21.639-6.73-43.2-14.621-64.083-23.455-20.694-8.753-41.209-18.635-60.972-29.372-19.628-10.662-38.977-22.417-57.51-34.937-18.443-12.46-36.509-25.97-53.7-40.153-17.145-14.149-33.81-29.3-49.532-45.018s-30.87-32.389-45.019-49.532c-14.185-17.188-27.693-35.254-40.152-53.7-12.522-18.535-24.277-37.884-34.937-57.509-10.738-19.766-20.62-40.28-29.371-60.972-8.831-20.878-16.723-42.438-23.455-64.083-6.808-21.887-12.591-44.377-17.187-66.845a698.919,698.919,0,0,1-10.569-69.255,708.737,708.737,0,0,1-3.6-71.316,708.734,708.734,0,0,1,3.6-71.316,698.924,698.924,0,0,1,10.569-69.255c4.6-22.468,10.38-44.958,17.188-66.845,6.732-21.646,14.624-43.206,23.455-64.083,8.751-20.692,18.633-41.205,29.371-60.971,10.66-19.624,22.415-38.973,34.938-57.509,12.458-18.441,25.967-36.507,40.152-53.7,14.147-17.143,29.294-33.807,45.019-49.532s32.389-30.869,49.532-45.018c17.188-14.184,35.253-27.694,53.7-40.153,18.532-12.52,37.881-24.275,57.51-34.938,19.765-10.737,40.278-20.619,60.972-29.371,20.881-8.832,42.441-16.724,64.083-23.455,21.882-6.806,44.371-12.589,66.845-17.187a699.239,699.239,0,0,1,69.255-10.569A708.632,708.632,0,0,1-9824.5,710a708.632,708.632,0,0,1,71.315,3.6,699.185,699.185,0,0,1,69.255,10.569c22.474,4.6,44.963,10.381,66.845,17.187,21.642,6.731,43.2,14.623,64.083,23.455,20.693,8.752,41.207,18.634,60.973,29.371,19.628,10.663,38.977,22.418,57.509,34.938,18.443,12.46,36.509,25.969,53.7,40.153,17.143,14.148,33.808,29.294,49.532,45.018s30.871,32.389,45.019,49.532c14.187,17.19,27.7,35.256,40.152,53.7,12.521,18.534,24.276,37.883,34.938,57.509,10.738,19.766,20.62,40.28,29.371,60.971,8.831,20.875,16.722,42.436,23.455,64.083,6.809,21.889,12.591,44.379,17.188,66.845a698.924,698.924,0,0,1,10.569,69.255,708.734,708.734,0,0,1,3.6,71.316,708.737,708.737,0,0,1-3.6,71.316,698.919,698.919,0,0,1-10.569,69.255c-4.6,22.466-10.379,44.955-17.187,66.845-6.732,21.647-14.624,43.208-23.455,64.083-8.751,20.692-18.633,41.205-29.371,60.972-10.661,19.627-22.416,38.975-34.937,57.509-12.458,18.441-25.967,36.507-40.152,53.7-14.148,17.143-29.295,33.808-45.019,49.532s-32.389,30.869-49.532,45.018c-17.186,14.183-35.252,27.692-53.7,40.153-18.533,12.52-37.882,24.275-57.509,34.937-19.765,10.737-40.278,20.619-60.973,29.372-20.884,8.833-42.444,16.725-64.083,23.455-21.882,6.806-44.371,12.589-66.845,17.187a699.11,699.11,0,0,1-69.255,10.57A708.666,708.666,0,0,1-9824.5,2105Zm.5-1136c-242.066,0-439,196.934-439,439s196.936,439,439,439,439-196.935,439-439S-9581.934,969-9824,969Z" transform="translate(10522.001 -710.001)"/></svg>