<svg xmlns="http://www.w3.org/2000/svg" width="261" height="66.149" viewBox="0 0 261 66.149"><defs><style>.a{fill:#fff;}.b{fill:#e94c55;}</style></defs><g transform="translate(-139 -30)"><g transform="translate(213.768 41.76)"><path class="a" d="M26.142,81.276H21.016V78.462a11.924,11.924,0,0,1-8.872,3.5C5.723,81.966.01,76.788.01,69.038c0-7.7,5.73-12.928,12.134-12.928a11.9,11.9,0,0,1,8.872,3.5V56.8h5.126ZM21,69.038a8.15,8.15,0,0,0-8.043-8.389c-4.488,0-7.992,3.262-7.992,8.389,0,5.178,3.5,8.389,7.992,8.389A8.118,8.118,0,0,0,21,69.038Z" transform="translate(-0.01 -46.254)"/><path class="a" d="M44.082,69.038c0,7.75-5.713,12.928-12.134,12.928a11.9,11.9,0,0,1-8.872-3.5v11.2H17.95V56.8h5.126v2.813a11.924,11.924,0,0,1,8.872-3.5C38.369,56.11,44.082,61.34,44.082,69.038Zm-4.971,0c0-5.126-3.5-8.389-7.992-8.389a8.4,8.4,0,0,0,0,16.777C35.608,77.427,39.111,74.216,39.111,69.038Z" transform="translate(12.677 -46.254)"/><path class="a" d="M60.8,69.038c0,7.75-5.713,12.928-12.134,12.928a11.9,11.9,0,0,1-8.872-3.5v11.2H34.67V56.8H39.8v2.813a11.924,11.924,0,0,1,8.872-3.5C55.072,56.11,60.8,61.34,60.8,69.038Zm-4.988,0c0-5.126-3.5-8.389-7.992-8.389a8.4,8.4,0,0,0,0,16.777C52.31,77.427,55.814,74.216,55.814,69.038Z" transform="translate(24.501 -46.254)"/><path class="a" d="M57.739,53.61a3.282,3.282,0,0,1-6.559,0,3.28,3.28,0,0,1,6.559,0ZM51.922,85.422V60.946h5.126V85.422Z" transform="translate(36.281 -50.4)"/><path class="a" d="M81,66.484V81.276H75.824V67.519c0-4-2.313-6.663-5.817-6.663-4.384,0-7.3,2.952-7.3,9.131V81.276H57.58V56.8h5.126v3A10.566,10.566,0,0,1,71.2,56.11C77.067,56.11,81,60.356,81,66.484Z" transform="translate(40.721 -46.254)"/><path class="a" d="M79.939,53.61a3.282,3.282,0,0,1-6.559,0,3.28,3.28,0,0,1,6.559,0ZM74.122,85.422V60.946h5.126V85.422Z" transform="translate(52.026 -50.4)"/><path class="a" d="M104.8,68.973c0,7.595-5.869,12.825-13.066,12.825-7.249,0-13.17-5.23-13.17-12.825S84.48,56.2,91.73,56.2C98.927,56.2,104.8,61.378,104.8,68.973Zm-4.988,0a8.125,8.125,0,1,0-8.1,8.389A8.14,8.14,0,0,0,99.808,68.973Z" transform="translate(55.252 -46.189)"/><path class="a" d="M118.783,66.484V81.276H113.6V67.519c0-4-2.313-6.663-5.817-6.663-4.384,0-7.3,2.952-7.3,9.131V81.276H95.36V56.8h5.126v3a10.566,10.566,0,0,1,8.492-3.694C114.83,56.11,118.783,60.356,118.783,66.484Z" transform="translate(67.45 -46.254)"/></g><g transform="translate(139 30)"><g transform="translate(9.172 19.088)"><path class="b" d="M80.768,25.447a2.329,2.329,0,0,1-1.666-.684,24.738,24.738,0,0,0-34.932,0,2.356,2.356,0,0,1-3.333-3.333,29.443,29.443,0,0,1,41.6,0,2.353,2.353,0,0,1,0,3.333A2.418,2.418,0,0,1,80.768,25.447Z" transform="translate(-40.145 -12.827)"/><g transform="translate(4.523 9.536)"><path class="b" d="M74.747,29.983a2.329,2.329,0,0,1-1.666-.684,18.327,18.327,0,0,0-25.872,0,2.356,2.356,0,1,1-3.333-3.333,23.014,23.014,0,0,1,32.522,0,2.351,2.351,0,0,1-1.651,4.017Z" transform="translate(-43.185 -19.238)"/></g><g transform="translate(9.06 19.106)"><path class="b" d="M68.722,34.552a2.329,2.329,0,0,1-1.666-.684,11.9,11.9,0,0,0-16.8,0,2.356,2.356,0,0,1-3.333-3.333,16.558,16.558,0,0,1,23.447,0,2.353,2.353,0,0,1,0,3.333A2.3,2.3,0,0,1,68.722,34.552Z" transform="translate(-46.235 -25.67)"/></g></g><path class="b" d="M64.642,66.146a14.982,14.982,0,0,1-7.468-1.994l-15.725-9.06A14.975,14.975,0,0,1,33.98,42.149V24.013A14.975,14.975,0,0,1,41.448,11.07L57.159,1.995a14.962,14.962,0,0,1,14.937,0L87.806,11.07a14.975,14.975,0,0,1,7.468,12.943V42.149a14.975,14.975,0,0,1-7.468,12.943L72.1,64.167A14.912,14.912,0,0,1,64.642,66.146Zm0-61.444a10.269,10.269,0,0,0-5.118,1.369L43.814,15.146A10.265,10.265,0,0,0,38.7,24.013V42.149a10.283,10.283,0,0,0,5.118,8.867l15.711,9.075a10.3,10.3,0,0,0,10.236,0l15.711-9.075a10.265,10.265,0,0,0,5.118-8.867V24.013a10.283,10.283,0,0,0-5.118-8.867L69.76,6.071A10.351,10.351,0,0,0,64.642,4.7Z" transform="translate(-33.98 0.003)"/></g></g></svg>