<?xml version="1.0" encoding="UTF-8" standalone="no"?>
<svg
   xmlns:dc="http://purl.org/dc/elements/1.1/"
   xmlns:cc="http://creativecommons.org/ns#"
   xmlns:rdf="http://www.w3.org/1999/02/22-rdf-syntax-ns#"
   xmlns:svg="http://www.w3.org/2000/svg"
   xmlns="http://www.w3.org/2000/svg"
   xmlns:sodipodi="http://sodipodi.sourceforge.net/DTD/sodipodi-0.dtd"
   xmlns:inkscape="http://www.inkscape.org/namespaces/inkscape"
   width="72.552002"
   height="78.301086"
   viewBox="0 0 72.552002 78.301083"
   version="1.1"
   id="svg3803"
   sodipodi:docname="AppinionLogo.svg"
   inkscape:version="0.92.4 (5da689c313, 2019-01-14)">
  <metadata
     id="metadata3807">
    <rdf:RDF>
      <cc:Work
         rdf:about="">
        <dc:format>image/svg+xml</dc:format>
        <dc:type
           rdf:resource="http://purl.org/dc/dcmitype/StillImage" />
        <dc:title></dc:title>
      </cc:Work>
    </rdf:RDF>
  </metadata>
  <sodipodi:namedview
     pagecolor="#ffffff"
     bordercolor="#666666"
     borderopacity="1"
     objecttolerance="10"
     gridtolerance="10"
     guidetolerance="10"
     inkscape:pageopacity="0"
     inkscape:pageshadow="2"
     inkscape:window-width="1920"
     inkscape:window-height="1137"
     id="namedview3805"
     showgrid="false"
     inkscape:zoom="1.8361988"
     inkscape:cx="379.46233"
     inkscape:cy="22.992732"
     inkscape:window-x="1672"
     inkscape:window-y="-8"
     inkscape:window-maximized="1"
     inkscape:current-layer="g3801" />
  <defs
     id="defs3763">
    <style
       id="style3761">.a{fill:#fff;}.b{fill:#e94c55;}</style>
  </defs>
  <g
     transform="translate(-68.970443,-220.83577)"
     id="g3801">
    <g
       transform="translate(31.839576,204.50071)"
       id="g3799">
      <g
         transform="translate(37.130867,16.3381)"
         id="g3797">
        <g
           transform="translate(10.856,22.593)"
           id="g3793">
          <path
             class="b"
             d="m 88.228,27.765 a 2.756,2.756 0 0 1 -1.972,-0.81 29.281,29.281 0 0 0 -41.348,0 2.7895363,2.7895363 0 0 1 -3.945,-3.945 34.851,34.851 0 0 1 49.237,0 2.785,2.785 0 0 1 0,3.945 2.863,2.863 0 0 1 -1.972,0.81 z"
             transform="translate(-40.145,-12.827)"
             id="path3783"
             inkscape:connector-curvature="0"
             style="fill:#e94c55" />
          <g
             transform="translate(5.353,11.288)"
             id="g3787">
            <path
               class="b"
               d="m 80.544,31.956 a 2.756,2.756 0 0 1 -1.972,-0.81 21.693,21.693 0 0 0 -30.623,0 A 2.7913042,2.7913042 0 1 1 44,27.2 a 27.241,27.241 0 0 1 38.495,0 2.782,2.782 0 0 1 -1.955,4.755 z"
               transform="translate(-43.185,-19.238)"
               id="path3785"
               inkscape:connector-curvature="0"
               style="fill:#e94c55" />
          </g>
          <g
             transform="translate(10.724,22.615)"
             id="g3791">
            <path
               class="b"
               d="m 72.852,36.183 a 2.756,2.756 0 0 1 -1.972,-0.81 14.083,14.083 0 0 0 -19.881,0 2.7895363,2.7895363 0 0 1 -3.945,-3.945 19.6,19.6 0 0 1 27.753,0 2.785,2.785 0 0 1 0,3.945 2.717,2.717 0 0 1 -1.955,0.81 z"
               transform="translate(-46.235,-25.67)"
               id="path3789"
               inkscape:connector-curvature="0"
               style="fill:#e94c55" />
          </g>
        </g>
        <path
           class="b"
           d="m 70.274,78.295 a 17.734,17.734 0 0 1 -8.84,-2.36 L 42.82,65.211 A 17.726,17.726 0 0 1 33.98,49.891 V 28.424 A 17.726,17.726 0 0 1 42.82,13.1 L 61.42,2.358 a 17.71,17.71 0 0 1 17.68,0 L 97.692,13.1 a 17.726,17.726 0 0 1 8.84,15.32 v 21.47 a 17.726,17.726 0 0 1 -8.84,15.32 L 79.1,75.953 a 17.651,17.651 0 0 1 -8.826,2.342 z m 0,-72.728 a 12.155,12.155 0 0 0 -6.058,1.62 L 45.62,17.929 a 12.15,12.15 0 0 0 -6.058,10.5 V 49.89 a 12.172,12.172 0 0 0 6.058,10.5 l 18.6,10.742 a 12.193,12.193 0 0 0 12.115,0 l 18.6,-10.742 a 12.15,12.15 0 0 0 6.058,-10.5 V 28.424 a 12.172,12.172 0 0 0 -6.058,-10.5 L 76.331,7.187 a 12.252,12.252 0 0 0 -6.057,-1.62 z"
           transform="translate(-33.98,0.003)"
           id="path3795"
           inkscape:connector-curvature="0"
           style="fill:#e94c55" />
      </g>
    </g>
  </g>
</svg>
