<svg xmlns="http://www.w3.org/2000/svg" width="187.905" height="47.623" viewBox="0 0 187.905 47.623"><defs><style>.a{fill:#4c3056;}.b{fill:#e94c55;}</style></defs><g transform="translate(-139 -30)"><g transform="translate(192.828 38.467)"><path class="a" d="M18.824,74.228H15.133V72.2a8.584,8.584,0,0,1-6.387,2.523C4.123,74.725.01,71,.01,65.417c0-5.542,4.126-9.307,8.736-9.307a8.565,8.565,0,0,1,6.387,2.523V56.607h3.691Zm-3.7-8.81A5.868,5.868,0,0,0,9.33,59.378a5.658,5.658,0,0,0-5.753,6.039c0,3.728,2.523,6.039,5.753,6.039A5.844,5.844,0,0,0,15.121,65.417Z" transform="translate(-0.01 -49.014)"/><path class="a" d="M36.764,65.417c0,5.58-4.113,9.307-8.736,9.307A8.565,8.565,0,0,1,21.641,72.2v8.065H17.95V56.607h3.691v2.026a8.584,8.584,0,0,1,6.387-2.523C32.651,56.11,36.764,59.875,36.764,65.417Zm-3.579,0a5.658,5.658,0,0,0-5.754-6.039,6.045,6.045,0,0,0,0,12.079C30.662,71.457,33.185,69.145,33.185,65.417Z" transform="translate(4.1 -49.014)"/><path class="a" d="M53.484,65.417c0,5.58-4.113,9.307-8.736,9.307A8.565,8.565,0,0,1,38.361,72.2v8.065H34.67V56.607h3.691v2.026a8.584,8.584,0,0,1,6.387-2.523C49.358,56.11,53.484,59.875,53.484,65.417Zm-3.591,0a5.658,5.658,0,0,0-5.754-6.039,6.045,6.045,0,0,0,0,12.079C47.37,71.457,49.893,69.145,49.893,65.417Z" transform="translate(7.93 -49.014)"/><path class="a" d="M55.9,52.711a2.363,2.363,0,0,1-4.722,0,2.362,2.362,0,0,1,4.722,0Zm-4.188,22.9V57.993h3.691V75.613Z" transform="translate(11.787 -50.4)"/><path class="a" d="M74.443,63.578v10.65H70.715v-9.9c0-2.883-1.665-4.8-4.188-4.8-3.156,0-5.256,2.125-5.256,6.574v8.127H57.58V56.607h3.691v2.162a7.607,7.607,0,0,1,6.114-2.659C71.61,56.11,74.443,59.167,74.443,63.578Z" transform="translate(13.191 -49.014)"/><path class="a" d="M78.1,52.711a2.363,2.363,0,0,1-4.722,0,2.362,2.362,0,0,1,4.722,0Zm-4.188,22.9V57.993h3.691V75.613Z" transform="translate(16.905 -50.4)"/><path class="a" d="M97.448,65.4a9.447,9.447,0,0,1-18.888,0c0-5.468,4.262-9.2,9.481-9.2A9.07,9.07,0,0,1,97.448,65.4Zm-3.591,0a5.85,5.85,0,1,0-5.828,6.039A5.861,5.861,0,0,0,93.857,65.4Z" transform="translate(17.777 -48.993)"/><path class="a" d="M112.223,63.578v10.65h-3.728v-9.9c0-2.883-1.665-4.8-4.188-4.8-3.156,0-5.256,2.125-5.256,6.574v8.127H95.36V56.607h3.691v2.162a7.607,7.607,0,0,1,6.114-2.659C109.377,56.11,112.223,59.167,112.223,63.578Z" transform="translate(21.853 -49.014)"/></g><g transform="translate(139 30)"><g transform="translate(6.603 13.742)"><path class="b" d="M69.391,21.913a1.677,1.677,0,0,1-1.2-.493,17.81,17.81,0,0,0-25.149,0,1.7,1.7,0,1,1-2.4-2.4,21.2,21.2,0,0,1,29.947,0,1.694,1.694,0,0,1,0,2.4A1.741,1.741,0,0,1,69.391,21.913Z" transform="translate(-40.145 -12.827)"/><g transform="translate(3.256 6.866)"><path class="b" d="M65.908,26.973a1.677,1.677,0,0,1-1.2-.493,13.194,13.194,0,0,0-18.626,0,1.7,1.7,0,0,1-2.4-2.4,16.569,16.569,0,0,1,23.414,0,1.692,1.692,0,0,1-1.189,2.892Z" transform="translate(-43.185 -19.238)"/></g><g transform="translate(6.523 13.755)"><path class="b" d="M62.424,32.064a1.677,1.677,0,0,1-1.2-.493,8.566,8.566,0,0,0-12.093,0,1.7,1.7,0,0,1-2.4-2.4,11.921,11.921,0,0,1,16.88,0,1.694,1.694,0,0,1,0,2.4A1.652,1.652,0,0,1,62.424,32.064Z" transform="translate(-46.235 -25.67)"/></g></g><path class="b" d="M56.055,47.621a10.786,10.786,0,0,1-5.377-1.435L39.357,39.662a10.781,10.781,0,0,1-5.377-9.318V17.287a10.781,10.781,0,0,1,5.377-9.318L50.667,1.435a10.772,10.772,0,0,1,10.754,0L72.732,7.969a10.781,10.781,0,0,1,5.377,9.318V30.344a10.781,10.781,0,0,1-5.377,9.318L61.421,46.2A10.736,10.736,0,0,1,56.055,47.621Zm0-44.236a7.393,7.393,0,0,0-3.685.985L41.06,10.9a7.39,7.39,0,0,0-3.685,6.384V30.344a7.4,7.4,0,0,0,3.685,6.384l11.311,6.534a7.416,7.416,0,0,0,7.369,0L71.05,36.728a7.39,7.39,0,0,0,3.685-6.384V17.287A7.4,7.4,0,0,0,71.05,10.9L59.74,4.37A7.452,7.452,0,0,0,56.055,3.385Z" transform="translate(-33.98 0.003)"/></g></g></svg>