<svg xmlns="http://www.w3.org/2000/svg" width="314.147" height="79.618" viewBox="0 0 314.147 79.618"><defs><style>.a{fill:#4c3056;}.b{fill:#e94c55;}</style></defs><g transform="translate(-139 -30)"><g transform="translate(228.993 44.155)"><path class="a" d="M31.464,86.4h-6.17V83.014a14.352,14.352,0,0,1-10.678,4.217C6.887,87.231.01,81,.01,71.671c0-9.266,6.9-15.561,14.605-15.561a14.319,14.319,0,0,1,10.678,4.217V56.941h6.17Zm-6.191-14.73a9.81,9.81,0,0,0-9.681-10.1c-5.4,0-9.619,3.927-9.619,10.1,0,6.233,4.217,10.1,9.619,10.1A9.771,9.771,0,0,0,25.273,71.671Z" transform="translate(-0.01 -44.247)"/><path class="a" d="M49.4,71.671C49.4,81,42.527,87.231,34.8,87.231A14.319,14.319,0,0,1,24.12,83.014V96.5H17.95V56.941h6.17v3.386A14.352,14.352,0,0,1,34.8,56.11C42.527,56.11,49.4,62.4,49.4,71.671Zm-5.983,0c0-6.17-4.217-10.1-9.619-10.1a10.106,10.106,0,0,0,0,20.194C39.2,81.767,43.42,77.9,43.42,71.671Z" transform="translate(18.913 -44.247)"/><path class="a" d="M66.124,71.671c0,9.328-6.877,15.561-14.605,15.561A14.319,14.319,0,0,1,40.84,83.014V96.5H34.67V56.941h6.17v3.386A14.352,14.352,0,0,1,51.519,56.11C59.226,56.11,66.124,62.4,66.124,71.671Zm-6,0c0-6.17-4.217-10.1-9.619-10.1a10.106,10.106,0,0,0,0,20.194C55.9,81.767,60.12,77.9,60.12,71.671Z" transform="translate(36.55 -44.247)"/><path class="a" d="M59.075,54.264a3.95,3.95,0,0,1-7.895,0,3.948,3.948,0,0,1,7.895,0Zm-7,38.289V63.094h6.17V92.553Z" transform="translate(54.09 -50.4)"/><path class="a" d="M85.772,68.6V86.4H79.539V69.842c0-4.82-2.784-8.019-7-8.019-5.277,0-8.788,3.553-8.788,10.99V86.4H57.58V56.941h6.17v3.615A12.717,12.717,0,0,1,73.972,56.11C81.035,56.11,85.772,61.221,85.772,68.6Z" transform="translate(60.737 -44.247)"/><path class="a" d="M81.275,54.264a3.95,3.95,0,0,1-7.895,0,3.948,3.948,0,0,1,7.895,0Zm-7,38.289V63.094h6.17V92.553Z" transform="translate(77.562 -50.4)"/><path class="a" d="M110.138,71.574c0,9.141-7.064,15.436-15.727,15.436-8.726,0-15.852-6.295-15.852-15.436S85.686,56.2,94.412,56.2C103.075,56.2,110.138,62.433,110.138,71.574Zm-6,0a9.78,9.78,0,1,0-9.744,10.1A9.8,9.8,0,0,0,104.134,71.574Z" transform="translate(82.5 -44.15)"/><path class="a" d="M123.552,68.6V86.4h-6.233V69.842c0-4.82-2.784-8.019-7-8.019-5.277,0-8.788,3.553-8.788,10.99V86.4H95.36V56.941h6.17v3.615a12.717,12.717,0,0,1,10.221-4.446C118.794,56.11,123.552,61.221,123.552,68.6Z" transform="translate(100.603 -44.247)"/></g><g transform="translate(139 30)"><g transform="translate(11.04 22.974)"><path class="b" d="M89.04,28.017a2.8,2.8,0,0,1-2.006-.824,29.775,29.775,0,0,0-42.045,0,2.836,2.836,0,0,1-4.011-4.011,35.439,35.439,0,0,1,50.067,0,2.832,2.832,0,0,1,0,4.011A2.911,2.911,0,0,1,89.04,28.017Z" transform="translate(-40.145 -12.827)"/><g transform="translate(5.444 11.478)"><path class="b" d="M81.174,32.171a2.8,2.8,0,0,1-2.006-.824,22.059,22.059,0,0,0-31.14,0,2.836,2.836,0,1,1-4.011-4.011,27.7,27.7,0,0,1,39.144,0,2.829,2.829,0,0,1-1.988,4.835Z" transform="translate(-43.185 -19.238)"/></g><g transform="translate(10.905 22.997)"><path class="b" d="M73.3,36.36a2.8,2.8,0,0,1-2.006-.824,14.32,14.32,0,0,0-20.217,0,2.836,2.836,0,1,1-4.011-4.011,19.93,19.93,0,0,1,28.221,0,2.832,2.832,0,0,1,0,4.011A2.763,2.763,0,0,1,73.3,36.36Z" transform="translate(-46.235 -25.67)"/></g></g><path class="b" d="M70.886,79.616a18.033,18.033,0,0,1-8.989-2.4L42.969,66.311A18.025,18.025,0,0,1,33.98,50.732V28.9a18.025,18.025,0,0,1,8.989-15.579L61.879,2.4a18.009,18.009,0,0,1,17.978,0l18.91,10.923A18.025,18.025,0,0,1,107.756,28.9V50.732a18.025,18.025,0,0,1-8.989,15.579L79.857,77.234A17.949,17.949,0,0,1,70.886,79.616Zm0-73.955a12.36,12.36,0,0,0-6.16,1.647L45.816,18.231A12.355,12.355,0,0,0,39.656,28.9V50.732A12.377,12.377,0,0,0,45.816,61.4l18.91,10.923a12.4,12.4,0,0,0,12.32,0L95.956,61.4a12.356,12.356,0,0,0,6.16-10.672V28.9a12.377,12.377,0,0,0-6.16-10.672L77.046,7.308A12.459,12.459,0,0,0,70.886,5.661Z" transform="translate(-33.98 0.003)"/></g></g></svg>