<svg xmlns="http://www.w3.org/2000/svg" width="144.639" height="28.888" viewBox="0 0 144.639 28.888"><defs><style>.a{fill:#2d2d3c;}.b{fill:#4885fa;}.c{fill:#f79227;}</style></defs><g transform="translate(0 7.378)"><path class="a" d="M12.314,38.655,10.626,40.4a6.1,6.1,0,0,0-4.133-2.056,3.163,3.163,0,0,0-2.2.846,2.551,2.551,0,0,0-.9,1.973,2.859,2.859,0,0,0,.761,1.888A10.4,10.4,0,0,0,7.316,45.21a11.625,11.625,0,0,1,3.989,2.94,5.284,5.284,0,0,1,1.028,3.207,5.819,5.819,0,0,1-1.768,4.276,6,6,0,0,1-4.419,1.748A7.72,7.72,0,0,1,2.771,56.6,7.506,7.506,0,0,1,.1,54.485l1.665-1.872a5.744,5.744,0,0,0,4.276,2.282,3.846,3.846,0,0,0,2.693-1.008A3.151,3.151,0,0,0,9.845,51.5a3.053,3.053,0,0,0-.74-2.014,12.231,12.231,0,0,0-3.311-2.178A10.432,10.432,0,0,1,2.032,44.5a5.485,5.485,0,0,1,.558-7.056A5.57,5.57,0,0,1,6.617,35.9C8.509,35.9,10.4,36.8,12.314,38.655Z" transform="translate(-0.1 -35.897)"/></g><g transform="translate(14.741 7.338)"><path class="a" d="M71.8,36.255h2.632V39.79a10.34,10.34,0,0,1,2.816-2.858,8.046,8.046,0,0,1,4.194-1.213,6.91,6.91,0,0,1,2.816.575,6.136,6.136,0,0,1,2.179,1.542,8.277,8.277,0,0,1,1.46,2.775,9.867,9.867,0,0,1,3.29-3.659A7.714,7.714,0,0,1,95.424,35.7a6.6,6.6,0,0,1,3.742,1.069,6.289,6.289,0,0,1,2.406,2.981,16.267,16.267,0,0,1,.781,5.756V56.672H99.658V45.548a14.668,14.668,0,0,0-.472-4.523,4.1,4.1,0,0,0-1.607-1.994,4.887,4.887,0,0,0-2.713-.761,5.818,5.818,0,0,0-3.5,1.131,6.619,6.619,0,0,0-2.323,3,18.894,18.894,0,0,0-.74,6.291v8.018H85.678V46.247a18.09,18.09,0,0,0-.452-5.037,4.222,4.222,0,0,0-1.607-2.117,4.62,4.62,0,0,0-2.732-.8,5.829,5.829,0,0,0-3.413,1.11,6.415,6.415,0,0,0-2.344,2.96,16.287,16.287,0,0,0-.759,5.7v8.678H71.8Z" transform="translate(-71.8 -35.698)"/></g><g transform="translate(47.819 7.337)"><path class="a" d="M254.019,36.255V56.711h-2.591V53.2a11.394,11.394,0,0,1-3.721,3.022,10.411,10.411,0,0,1-11.924-2.138A10.531,10.531,0,0,1,232.7,46.41a10.365,10.365,0,0,1,3.1-7.566,10.132,10.132,0,0,1,7.463-3.146,9.583,9.583,0,0,1,4.564,1.069,10.526,10.526,0,0,1,3.577,3.207v-3.72Zm-10.526,2.014a7.964,7.964,0,0,0-7.011,4.133,8.312,8.312,0,0,0,.021,8.265,7.913,7.913,0,0,0,2.981,3.063,7.738,7.738,0,0,0,4.009,1.09,8.3,8.3,0,0,0,4.092-1.09,7.594,7.594,0,0,0,2.981-2.94A8.357,8.357,0,0,0,251.61,46.6a8.172,8.172,0,0,0-2.344-5.941,7.818,7.818,0,0,0-5.773-2.383Z" transform="translate(-232.697 -35.697)"/></g><g transform="translate(71.937 7.889)"><path class="a" d="M358.306,38.374h2.241v2.282h-2.981a3.45,3.45,0,0,0-2.509.843,6.782,6.782,0,0,0-1.871,3.352,31.916,31.916,0,0,0-.493,7.071v6.93H350V38.374h2.693v3a8.438,8.438,0,0,1,2.344-2.509A6.2,6.2,0,0,1,358.306,38.374Z" transform="translate(-350 -38.368)"/></g><g transform="translate(92.455)"><path class="b" d="M449.8,0h5.143V28.352H449.8Z" transform="translate(-449.8)"/></g><g transform="translate(99.169 7.36)"><path class="b" d="M498.555,36.334H503.7V56.791h-5.143V54.632a10.127,10.127,0,0,1-3.022,2.056,8.577,8.577,0,0,1-3.269.637,9.107,9.107,0,0,1-6.867-3.084,10.738,10.738,0,0,1-2.9-7.648,10.961,10.961,0,0,1,2.8-7.772,8.935,8.935,0,0,1,6.8-3.022,8.437,8.437,0,0,1,3.455.7,9.283,9.283,0,0,1,2.981,2.1V36.334Zm-5.407,4.214a5.147,5.147,0,0,0-3.948,1.687,6.7,6.7,0,0,0,.024,8.676,5.156,5.156,0,0,0,3.948,1.707,5.28,5.28,0,0,0,4.009-1.687,6.119,6.119,0,0,0,1.583-4.4,5.97,5.97,0,0,0-1.583-4.317A5.319,5.319,0,0,0,493.148,40.549Z" transform="translate(-482.489 -35.799)"/></g><g transform="translate(123.458)"><path class="b" d="M616.02,15.173a6.717,6.717,0,0,1,.637,2.94,6.1,6.1,0,0,1-1.607,4.358,5.169,5.169,0,0,1-3.968,1.707,5.293,5.293,0,0,1-4.03-1.687,6.131,6.131,0,0,1-1.607-4.4,5.9,5.9,0,0,1,1.607-4.317,5.349,5.349,0,0,1,4.03-1.665h.1V7.422a8.691,8.691,0,0,0-2.491.637,9.586,9.586,0,0,0-3,2.1V0H600.6V28.352h5.1V26.195a10.126,10.126,0,0,0,3.022,2.056,8.679,8.679,0,0,0,3.29.637,9.107,9.107,0,0,0,6.867-3.084,10.738,10.738,0,0,0,2.9-7.648,11.7,11.7,0,0,0-1.46-5.921Z" transform="translate(-600.6)"/></g><path class="c" d="M661.3,26.6v9.519l6.991-4.77Z" transform="translate(-525.362 -21.131)"/><g transform="translate(84.704 0.309)"><path class="a" d="M417.3,9.086H414.73V1.5H412.1V29.543h2.631V11.368H417.3Z" transform="translate(-412.1 -1.5)"/></g></svg>