<?xml version="1.0" encoding="UTF-8" standalone="no"?>
<!-- Created with Inkscape (http://www.inkscape.org/) -->

<svg
   xmlns:dc="http://purl.org/dc/elements/1.1/"
   xmlns:cc="http://creativecommons.org/ns#"
   xmlns:rdf="http://www.w3.org/1999/02/22-rdf-syntax-ns#"
   xmlns:svg="http://www.w3.org/2000/svg"
   xmlns="http://www.w3.org/2000/svg"
   xmlns:sodipodi="http://sodipodi.sourceforge.net/DTD/sodipodi-0.dtd"
   xmlns:inkscape="http://www.inkscape.org/namespaces/inkscape"
   width="10.072159mm"
   height="10.072159mm"
   viewBox="0 0 10.072159 10.072159"
   version="1.1"
   id="svg8"
   inkscape:version="0.92.4 (5da689c313, 2019-01-14)"
   sodipodi:docname="google-icon.svg">
  <defs
     id="defs2" />
  <sodipodi:namedview
     id="base"
     pagecolor="#ffffff"
     bordercolor="#666666"
     borderopacity="1.0"
     inkscape:pageopacity="0.0"
     inkscape:pageshadow="2"
     inkscape:zoom="3.959798"
     inkscape:cx="-9.8662497"
     inkscape:cy="-19.077521"
     inkscape:document-units="mm"
     inkscape:current-layer="layer1"
     showgrid="false"
     inkscape:snap-bbox="true"
     inkscape:window-width="1920"
     inkscape:window-height="1137"
     inkscape:window-x="1672"
     inkscape:window-y="-8"
     inkscape:window-maximized="1" />
  <metadata
     id="metadata5">
    <rdf:RDF>
      <cc:Work
         rdf:about="">
        <dc:format>image/svg+xml</dc:format>
        <dc:type
           rdf:resource="http://purl.org/dc/dcmitype/StillImage" />
        <dc:title></dc:title>
      </cc:Work>
    </rdf:RDF>
  </metadata>
  <g
     inkscape:label="Layer 1"
     inkscape:groupmode="layer"
     id="layer1"
     transform="translate(-115.55864,-119.6068)">
    <circle
       style="fill:#4c3056;stroke-width:0.26458332"
       id="Ellipse_59"
       data-name="Ellipse 59"
       cx="95.213501"
       cy="124.64288"
       r="5.0360794" />
    <path
       style="fill:#ffffff;fill-rule:evenodd;stroke-width:0.26458332"
       inkscape:connector-curvature="0"
       id="Fill-4"
       d="m 94.562365,126.74103 h 0.712258 v -1.95448 h 0.534458 l 0.105834,-0.61066 h -0.640292 v -0.44265 c 0,-0.14261 0.09234,-0.29236 0.224367,-0.29236 h 0.363802 v -0.61092 h -0.445823 v 0.003 c -0.697442,0.0265 -0.840846,0.42889 -0.853281,0.85275 v 0 0.49028 h -0.357717 v 0.61066 h 0.356394 z" />
    <circle
       style="fill:#4c3056;stroke-width:0.26458332"
       id="Ellipse_58"
       data-name="Ellipse 58"
       cx="107.70263"
       cy="124.64288"
       r="5.0360794" />
    <path
       style="fill:#ffffff;fill-rule:evenodd;stroke-width:0.26458332"
       inkscape:connector-curvature="0"
       id="Fill-1"
       d="m 109.79496,122.90933 a 1.4790208,1.4790208 0 0 1 -0.57071,0.20241 v 0 a 0.91466457,0.91466457 0 0 0 -1.55284,0.83608 v 0 a 2.53365,2.53365 0 0 1 -1.88595,-0.94932 0.91545832,0.91545832 0 0 0 0.27755,1.20888 0.58816874,0.58816874 0 0 1 -0.39952,-0.10345 0.88159166,0.88159166 0 0 0 0.70565,0.89561 0.72442916,0.72442916 0 0 1 -0.381,0.0291 0.86492291,0.86492291 0 0 0 0.81782,0.62071 1.6269229,1.6269229 0 0 1 -1.31921,0.37915 2.7487562,2.7487562 0 0 0 1.43113,0.40455 2.5415875,2.5415875 0 0 0 2.56064,-2.6723 c 0,-0.002 0,-0.003 0,-0.005 0,-0.002 0,-0.008 0,-0.0116 0,-0.004 0,-0.009 0,-0.0132 a 1.5782396,1.5782396 0 0 0 0.44344,-0.46832 1.6031104,1.6031104 0 0 1 -0.50721,0.14394 0.97207915,0.97207915 0 0 0 0.381,-0.49689" />
    <circle
       style="fill:#4c3056;stroke-width:0.26458332"
       id="Ellipse_56"
       data-name="Ellipse 56"
       cx="120.59472"
       cy="124.64288"
       r="5.0360794" />
    <path
       style="fill:#ffffff;stroke-width:0.26458332"
       inkscape:connector-curvature="0"
       id="Union_31"
       data-name="Union 31"
       d="m 118.99082,126.31161 a 1.5935854,1.5935854 0 0 1 0.57652,-3.07764 1.6110479,1.6110479 0 0 1 1.06284,0.39317 5.6268937,5.6268937 0 0 1 -0.40349,0.41831 1.0488083,1.0488083 0 0 0 -1.23746,-0.0325 1.0202333,1.0202333 0 0 0 -0.0434,1.58935 c 0.48392,0.43974 1.39859,0.22119 1.5322,-0.45165 -0.30321,-0.004 -0.60695,0 -0.91017,-0.01 0,-0.18097 -0.002,-0.36195 0,-0.54292 0.50668,-0.002 1.01336,-0.002 1.52083,0.002 a 1.8272125,1.8272125 0 0 1 -0.28707,1.2311 1.4896041,1.4896041 0 0 1 -1.22503,0.58764 1.6348604,1.6348604 0 0 1 -0.58578,-0.10662 z m 3.20146,-0.73528 c -0.002,-0.15134 -0.002,-0.30268 -0.003,-0.45403 l -0.45349,-0.005 v -0.45244 c 0.15108,-0.002 0.30215,-0.002 0.45429,-0.003 q 0,-0.22807 0.004,-0.45456 h 0.45191 c 0,0.15135 0.002,0.30348 0.003,0.45456 0.15108,0.002 0.30321,0.002 0.45429,0.003 v 0.45244 l -0.45429,0.004 q -0.002,0.22833 -0.003,0.45481 z" />
    <circle
       style="fill:#4c3056;stroke-width:0.26458332"
       id="Ellipse_57"
       data-name="Ellipse 57"
       cx="133.08411"
       cy="124.64288"
       r="5.0360794" />
    <path
       style="fill:#ffffff;stroke-width:0.26458332"
       inkscape:connector-curvature="0"
       id="Union_32"
       data-name="Union 32"
       d="m 133.83764,126.65663 h -1.70921 a 1.2615333,1.2615333 0 0 1 -1.26021,-1.25995 v -1.70947 a 1.2615333,1.2615333 0 0 1 1.26021,-1.26021 h 1.70947 a 1.2615333,1.2615333 0 0 1 1.26021,1.26021 v 1.70947 a 1.2615333,1.2615333 0 0 1 -1.26047,1.25995 z m -0.85461,-3.20887 a 1.0940521,1.0940521 0 1 0 1.09379,1.09405 1.095375,1.095375 0 0 0 -1.09379,-1.09405 z m 1.09591,-0.254 a 0.26220208,0.26220208 0 1 0 0.2622,0.2622 0.26246666,0.26246666 0 0 0 -0.2622,-0.26167 z m -1.09591,2.01666 a 0.66833749,0.66833749 0 1 1 0.66861,-0.66861 0.66913124,0.66913124 0 0 1 -0.66861,0.66861 z" />
  </g>
</svg>
