<?xml version="1.0" encoding="UTF-8" standalone="no"?>
<!-- Created with Inkscape (http://www.inkscape.org/) -->

<svg
   xmlns:dc="http://purl.org/dc/elements/1.1/"
   xmlns:cc="http://creativecommons.org/ns#"
   xmlns:rdf="http://www.w3.org/1999/02/22-rdf-syntax-ns#"
   xmlns:svg="http://www.w3.org/2000/svg"
   xmlns="http://www.w3.org/2000/svg"
   xmlns:sodipodi="http://sodipodi.sourceforge.net/DTD/sodipodi-0.dtd"
   xmlns:inkscape="http://www.inkscape.org/namespaces/inkscape"
   width="3.175mm"
   height="1.9605625mm"
   viewBox="0 0 3.175 1.9605625"
   version="1.1"
   id="svg8"
   inkscape:version="0.92.4 (5da689c313, 2019-01-14)"
   sodipodi:docname="dropdown-arrow.svg">
  <defs
     id="defs2">
    <style
       id="style10">.a,.b{fill:#fff;}.a{font-size:24px;}.a,.d{font-family:GalanoGrotesque-Regular, Galano Grotesque;}.c{fill:#d9d9d9;}.d{fill:#4c3056;font-size:18px;}.e{fill:#e94c55;}</style>
  </defs>
  <sodipodi:namedview
     id="base"
     pagecolor="#ffffff"
     bordercolor="#666666"
     borderopacity="1.0"
     inkscape:pageopacity="0.0"
     inkscape:pageshadow="2"
     inkscape:zoom="1.4"
     inkscape:cx="-172.25871"
     inkscape:cy="-63.734721"
     inkscape:document-units="mm"
     inkscape:current-layer="g42"
     showgrid="false"
     inkscape:window-width="1920"
     inkscape:window-height="1137"
     inkscape:window-x="1672"
     inkscape:window-y="-8"
     inkscape:window-maximized="1" />
  <metadata
     id="metadata5">
    <rdf:RDF>
      <cc:Work
         rdf:about="">
        <dc:format>image/svg+xml</dc:format>
        <dc:type
           rdf:resource="http://purl.org/dc/dcmitype/StillImage" />
        <dc:title></dc:title>
      </cc:Work>
    </rdf:RDF>
  </metadata>
  <g
     inkscape:label="Layer 1"
     inkscape:groupmode="layer"
     id="layer1"
     transform="translate(1.2095226,-257.65268)">
    <g
       id="g42"
       transform="matrix(0.26458333,0,0,0.26458333,-468.99285,238.3381)">
      <text
         id="text16"
         transform="translate(1667,84.066)"
         class="a"
         style="font-size:24px;font-family:GalanoGrotesque-Regular, 'Galano Grotesque';fill:#ffffff">
        <tspan
           id="tspan14"
           y="0"
           x="-78.456001">Zdravo Haris!</tspan>
      </text>
      <g
         id="g26"
         transform="translate(260.08,-1.92)">
        <circle
           id="circle18"
           transform="translate(1258.92,52.92)"
           r="25"
           cy="25"
           cx="25"
           class="b"
           style="fill:#ffffff" />
        <g
           id="g24"
           transform="translate(1270.156,62.304)">
          <path
             id="path20"
             transform="translate(-123)"
             d="m 142.3,2.3 a 7.855,7.855 0 1 1 -11.108,0 7.855,7.855 0 0 1 11.108,0"
             class="c"
             inkscape:connector-curvature="0"
             style="fill:#d9d9d9" />
          <path
             id="path22"
             transform="translate(-32.223,-273.384)"
             d="m 58.017,294.754 a 21.817,21.817 0 0 0 -24.1,0 3.9,3.9 0 0 0 -1.7,3.243 V 304.8 H 59.714 V 298 a 3.9,3.9 0 0 0 -1.697,-3.246 z"
             class="c"
             inkscape:connector-curvature="0"
             style="fill:#d9d9d9" />
        </g>
      </g>
      <g
         id="g34"
         transform="translate(1250.898,53)">
        <rect
           id="rect28"
           transform="translate(-22.898)"
           rx="24"
           height="48"
           width="271"
           class="b"
           x="0"
           y="0"
           style="fill:#ffffff" />
        <text
           id="text32"
           transform="translate(133.748,29.4)"
           class="d"
           style="font-size:18px;font-family:GalanoGrotesque-Regular, 'Galano Grotesque';fill:#4c3056">
          <tspan
             id="tspan30"
             y="0"
             x="-83.519997">Dodaj prezentaciju</tspan>
        </text>
      </g>
      <g
         id="g38"
         transform="translate(1247.371,63.371)">
        <path
           id="path36"
           d="m 26.193,12.564 h -11.5 V 1.065 a 1.065,1.065 0 0 0 -2.13,0 v 11.5 H 1.065 a 1.065,1.065 0 0 0 0,2.13 h 11.5 v 11.5 a 1.065,1.065 0 0 0 2.13,0 v -11.5 h 11.5 a 1.065,1.065 0 0 0 0,-2.13 z"
           class="e"
           inkscape:connector-curvature="0"
           style="fill:#e94c55" />
      </g>
      <path
         id="path40"
         transform="translate(1762,64.41)"
         d="M 16.59,8.59 12,13.17 7.41,8.59 6,10 l 6,6 6,-6 z"
         class="b"
         inkscape:connector-curvature="0"
         style="fill:#ffffff" />
    </g>
  </g>
</svg>
