<svg xmlns="http://www.w3.org/2000/svg" width="77.572" height="78.863" viewBox="0 0 77.572 78.863"><defs><style>.a{fill:#fff;}</style></defs><g transform="translate(-1.998 -1.999)"><path class="a" d="M79.381,23.306a1.291,1.291,0,0,0-.814-.588A73.511,73.511,0,0,1,48.9,8.219l-7.3-5.93a1.293,1.293,0,0,0-1.632,0l-7.3,5.93A73.511,73.511,0,0,1,3,22.718,1.294,1.294,0,0,0,2.039,24.3l2.529,9.8A75.76,75.76,0,0,0,40.143,80.692a1.292,1.292,0,0,0,1.284,0A75.768,75.768,0,0,0,77,34.1l2.529-9.8a1.294,1.294,0,0,0-.149-1ZM74.5,33.455a73.165,73.165,0,0,1-33.71,44.622A73.165,73.165,0,0,1,7.075,33.455l-2.2-8.527A76.139,76.139,0,0,0,34.3,10.227l6.482-5.268,6.483,5.268A76.139,76.139,0,0,0,76.7,24.927Z" transform="translate(0)"/><path class="a" d="M54.615,33.631,52.244,32.6a66.878,66.878,0,0,1-7.056,12.408l2.1,1.51a69.281,69.281,0,0,0,7.329-12.888Z" transform="translate(12.647 8.961)"/><path class="a" d="M55.249,28.479,52.785,27.7c-.406,1.284-.855,2.562-1.333,3.8l2.411.932c.5-1.29.963-2.619,1.386-3.953Z" transform="translate(14.481 7.525)"/><path class="a" d="M22,23.928a12.845,12.845,0,0,0,6.464,11.184v27.6a1.287,1.287,0,0,0,.379.914L34.014,68.8a1.292,1.292,0,0,0,1.828,0L43.6,61.041a1.291,1.291,0,0,0,0-1.828l-2.964-2.964L43.6,53.284a1.291,1.291,0,0,0,0-1.828l-2.964-2.964L43.6,45.527a1.291,1.291,0,0,0,0-1.828l-3.5-3.5V35.765A12.923,12.923,0,1,0,22,23.928Zm23.271,0a10.357,10.357,0,0,1-6.9,9.74,1.293,1.293,0,0,0-.861,1.219v5.847a1.287,1.287,0,0,0,.379.914l2.964,2.964-2.964,2.964a1.291,1.291,0,0,0,0,1.828l2.964,2.964-2.964,2.964a1.291,1.291,0,0,0,0,1.828l2.964,2.964-4.636,4.636V58.834H33.635v5.929L31.05,62.177V34.341a1.293,1.293,0,0,0-.718-1.158,10.338,10.338,0,1,1,14.939-9.254Z" transform="translate(5.857 2.636)"/><path class="a" d="M31,44h2.586v2.586H31Z" transform="translate(8.492 12.299)"/><path class="a" d="M31,40h2.586v2.586H31Z" transform="translate(8.492 11.127)"/><path class="a" d="M31,36h2.586v2.586H31Z" transform="translate(8.492 9.956)"/><path class="a" d="M29,18.878A3.878,3.878,0,1,0,32.878,15,3.883,3.883,0,0,0,29,18.878Zm5.171,0a1.293,1.293,0,1,1-1.293-1.293A1.293,1.293,0,0,1,34.171,18.878Z" transform="translate(7.907 3.807)"/></g></svg>