<svg xmlns="http://www.w3.org/2000/svg" xmlns:xlink="http://www.w3.org/1999/xlink" width="1694" height="1643" viewBox="0 0 1694 1643"><defs><style>.a{fill:url(#a);}</style><linearGradient id="a" x1="0.5" x2="0.5" y2="1" gradientUnits="objectBoundingBox"><stop offset="0" stop-color="#ff1d3b"/><stop offset="1" stop-color="#621ea7"/></linearGradient></defs><path class="a" d="M-9675,2353c-28.892,0-58.029-1.427-86.6-4.242-28.158-2.773-56.453-6.961-84.1-12.448-27.29-5.416-54.6-12.227-81.172-20.243-26.275-7.927-52.458-17.221-77.818-27.624-25.13-10.309-50.041-21.948-74.039-34.594-23.836-12.558-47.33-26.4-69.836-41.148-22.4-14.675-44.335-30.586-65.205-47.292-20.818-16.665-41.056-34.5-60.148-53.021s-37.486-38.147-54.668-58.337c-17.225-20.244-33.629-41.522-48.758-63.242-15.208-21.831-29.48-44.619-42.426-67.733-13.041-23.28-25.041-47.441-35.666-71.811a802.839,802.839,0,0,1-28.484-75.476,798.456,798.456,0,0,1-20.869-78.728,799.758,799.758,0,0,1-12.836-81.567A809.689,809.689,0,0,1-10522,1531.5a809.682,809.682,0,0,1,4.373-83.994,799.771,799.771,0,0,1,12.836-81.567,798.474,798.474,0,0,1,20.869-78.728,802.711,802.711,0,0,1,28.484-75.476c10.625-24.37,22.625-48.531,35.666-71.811,12.945-23.113,27.218-45.9,42.426-67.733,15.128-21.719,31.531-43,48.758-63.242,17.18-20.19,35.572-39.818,54.668-58.338s39.33-36.357,60.148-53.021c20.871-16.706,42.81-32.617,65.205-47.291,22.5-14.746,46-28.59,69.836-41.149,24-12.646,48.91-24.285,74.039-34.593,25.357-10.4,51.539-19.7,77.818-27.625,26.572-8.016,53.882-14.827,81.172-20.243,27.646-5.486,55.94-9.675,84.1-12.448,28.568-2.814,57.705-4.241,86.6-4.241s58.031,1.427,86.6,4.241c28.161,2.774,56.456,6.962,84.1,12.448,27.29,5.416,54.6,12.227,81.172,20.243,26.28,7.928,52.461,17.222,77.818,27.625,25.129,10.308,50.039,21.947,74.041,34.593,23.835,12.559,47.33,26.4,69.836,41.149,22.395,14.675,44.333,30.586,65.2,47.291,20.816,16.663,41.055,34.5,60.148,53.021s37.488,38.148,54.669,58.338c17.228,20.246,33.631,41.524,48.759,63.242,15.205,21.829,29.479,44.618,42.426,67.733,13.039,23.28,25.039,47.441,35.666,71.811a803.373,803.373,0,0,1,28.482,75.476,798.6,798.6,0,0,1,20.871,78.728,800.036,800.036,0,0,1,12.834,81.567A809.413,809.413,0,0,1-8828,1531.5a809.42,809.42,0,0,1-4.375,83.994,800.023,800.023,0,0,1-12.834,81.567,798.572,798.572,0,0,1-20.871,78.728,802.958,802.958,0,0,1-28.482,75.476c-10.627,24.37-22.627,48.531-35.666,71.811-12.947,23.116-27.221,45.9-42.426,67.733-15.129,21.719-31.533,43-48.759,63.242-17.181,20.191-35.574,39.818-54.669,58.337s-39.33,36.357-60.148,53.021c-20.868,16.7-42.809,32.615-65.2,47.292-22.506,14.746-46,28.59-69.836,41.148-24,12.645-48.911,24.284-74.041,34.594-25.36,10.4-51.541,19.7-77.818,27.624-26.572,8.016-53.882,14.827-81.172,20.243-27.646,5.487-55.941,9.676-84.1,12.448C-9616.973,2351.573-9646.108,2353-9675,2353Zm.609-1337.956c-293.95,0-533.1,231.945-533.1,517.043s239.147,517.046,533.1,517.046,533.093-231.946,533.093-517.046S-9380.441,1015.045-9674.391,1015.045Z" transform="translate(10522 -710.001)"/></svg>