<svg xmlns="http://www.w3.org/2000/svg" width="95.081" height="76.065" viewBox="0 0 95.081 76.065"><defs><style>.a{fill:#d9d9d9;}</style></defs><g transform="translate(-623 -2354)"><g transform="translate(623 2354)"><path class="a" d="M282.147.332H267.885A11.9,11.9,0,0,0,256,12.218V26.48a11.9,11.9,0,0,0,11.885,11.885h14.262a11.847,11.847,0,0,0,2.377-.243v9.751a19.036,19.036,0,0,1-19.016,19.016h-4.755a4.754,4.754,0,0,0,0,9.508h4.755a28.554,28.554,0,0,0,28.524-28.524V12.218A11.9,11.9,0,0,0,282.147.332Zm0,0" transform="translate(-198.952 -0.332)"/><path class="a" d="M26.147.332H11.885A11.9,11.9,0,0,0,0,12.218V26.48A11.9,11.9,0,0,0,11.885,38.364H26.147a11.847,11.847,0,0,0,2.377-.243v9.751A19.036,19.036,0,0,1,9.508,66.889H4.754a4.754,4.754,0,0,0,0,9.508H9.508A28.554,28.554,0,0,0,38.033,47.873V12.218A11.9,11.9,0,0,0,26.147.332Zm0,0" transform="translate(0 -0.332)"/></g></g></svg>